HIERARCHY
ROOT Hips
{
	OFFSET 0.00000 0.00000 0.00000
	CHANNELS 6 Xposition Yposition Zposition Zrotation Yrotation Xrotation 
	JOINT LHipJoint
	{
		OFFSET 0 0 0
		CHANNELS 3 Zrotation Yrotation Xrotation
		JOINT LeftHip
		{
			OFFSET 1.53139 -1.83434 0.76626
			CHANNELS 3 Zrotation Yrotation Xrotation
			JOINT LeftKnee
			{
				OFFSET 2.56112 -7.03663 0.00000
				CHANNELS 3 Zrotation Yrotation Xrotation
				JOINT LeftAnkle
				{
					OFFSET 2.59983 -7.14299 0.00000
					CHANNELS 3 Zrotation Yrotation Xrotation
					JOINT LeftToe
					{
						OFFSET 0.13742 -0.37757 2.00054
						CHANNELS 3 Zrotation Yrotation Xrotation
						End Site
						{
							OFFSET 0.00000 -0.00000 1.02897
						}
					}
				}
			}
		}
	}
	JOINT RHipJoint
	{
		OFFSET 0 0 0
		CHANNELS 3 Zrotation Yrotation Xrotation
		JOINT RightHip
		{
			OFFSET -1.40122 -1.83435 0.76627
			CHANNELS 3 Zrotation Yrotation Xrotation
			JOINT RightKnee
			{
				OFFSET -2.54052 -6.98003 0.00000
				CHANNELS 3 Zrotation Yrotation Xrotation
				JOINT RightAnkle
				{
					OFFSET -2.63179 -7.23079 0.00000
					CHANNELS 3 Zrotation Yrotation Xrotation
					JOINT RightToe
					{
						OFFSET -0.24131 -0.66299 2.03908
						CHANNELS 3 Zrotation Yrotation Xrotation
						End Site
						{
							OFFSET -0.00000 -0.00000 1.07391
						}
					}
				}
			}
		}
	}
	JOINT lowerback
	{
		OFFSET 0 0 0
		CHANNELS 3 Zrotation Yrotation Xrotation
		JOINT Chest
		{
			OFFSET 0.01174 2.10302 -0.29778
			CHANNELS 3 Zrotation Yrotation Xrotation
			JOINT Chest2
			{
				OFFSET 0.00772 2.13227 -0.01247
				CHANNELS 3 Zrotation Yrotation Xrotation
				JOINT lowerneck
				{
					OFFSET 0 0 0
					CHANNELS 3 Zrotation Yrotation Xrotation
					JOINT Neck
					{
						OFFSET -0.09219 1.60848 0.31481
						CHANNELS 3 Zrotation Yrotation Xrotation
						JOINT Head
						{
							OFFSET 0.13974 1.65456 -0.31134
							CHANNELS 3 Zrotation Yrotation Xrotation
							End Site
							{
								OFFSET 0.04742 1.69515 -0.14578
							}
						}
					}
				}
				JOINT LeftCollar
				{
					OFFSET 0 0 0
					CHANNELS 3 Zrotation Yrotation Xrotation
					JOINT LeftShoulder
					{
						OFFSET 3.24909 1.02882 -0.23993
CHANNELS 3 Zrotation Xrotation Yrotation
						JOINT LeftElbow
						{
OFFSET 0 -5.329550 -0.000000
CHANNELS 3 Zrotation Xrotation Yrotation
							JOINT LeftWrist
							{
OFFSET 0 -3.692320 -0.000000
CHANNELS 3 Zrotation Xrotation Yrotation
								JOINT lhand
								{
									OFFSET 0 0 0
CHANNELS 3 Zrotation Xrotation Yrotation
									JOINT LFingers
									{
OFFSET 0 -0.536600 -0.000000
CHANNELS 3 Zrotation Xrotation Yrotation
										End Site
										{
OFFSET 0 -0.432620 -0.000000
										}
									}
								}
								JOINT LThumb
								{
OFFSET 0 0.000000 0.000000
CHANNELS 3 Zrotation Xrotation Yrotation
									End Site
									{
OFFSET 0 -0.439220 0.439220
									}
								}
							}
						}
					}
				}
				JOINT RightCollar
				{
					OFFSET 0 0 0
					CHANNELS 3 Zrotation Yrotation Xrotation
					JOINT RightShoulder
					{
						OFFSET -3.21387 0.93002 -0.34594
CHANNELS 3 Zrotation Xrotation Yrotation
						JOINT RightElbow
						{
OFFSET 0 -5.234310 0.000000
CHANNELS 3 Zrotation Xrotation Yrotation
							JOINT RightWrist
							{
OFFSET 0 -3.553010 -0.000000
CHANNELS 3 Zrotation Xrotation Yrotation
								JOINT rhand
								{
									OFFSET 0 0 0
CHANNELS 3 Zrotation Xrotation Yrotation
									JOINT RFingers
									{
OFFSET 0 -0.772520 -0.000000
CHANNELS 3 Zrotation Xrotation Yrotation
										End Site
										{
OFFSET 0 -0.622830 -0.000000
										}
									}
								}
								JOINT RThumb
								{
OFFSET 0 0.000000 0.000000
CHANNELS 3 Zrotation Xrotation Yrotation
									End Site
									{
OFFSET 0 -0.632340 0.632340
									}
								}
							}
						}
					}
				}
			}
		}
	}
}
MOTION
Frames: 6
Frame Time: 0.008333333333333333
-11.325160 17.798563 14.984905 3.960201 -7.038813 720.358863 0.000000 0.000000 0.000000 -24.431561 -8.013369 -8.067408 1.356359 7.372086 20.822558 -0.733978 -18.025920 -4.120269 0.040559 -1.297751 -3.568580 0.000000 0.000000 0.000000 16.036574 7.024476 -15.437174 -5.688714 -14.119544 43.718979 -0.847669 5.472901 -16.419263 -0.044451 1.335080 -3.671536 -1.657004 0.700660 9.494762 0.485502 0.779036 1.475090 1.338182 0.409303 -3.818961 -11.879715 -1.260794 -11.636005 3.842492 0.036088 43.647302 3.998128 -1.475460 18.468840 0.000000 0.000000 0.000000 1.937527 7.854629 -16.865125 20.725971 -31.507009 5.906085 19.662284 10.690826 -26.811358 0.000000 0.000000 0.000000 -7.125000 0.000000 0.000000 -11.686827 57.817785 3.700119 0.000000 0.000000 0.000000 -1.237778 7.053707 16.197216 -23.042061 -34.134667 -7.161930 -15.322641 -2.473085 -7.685605 0.000000 0.000000 0.000000 7.125000 0.000000 0.000000 8.362003 22.043431 4.661091
-11.527938 17.769163 14.988473 3.436397 -3.333924 720.113616 0.000000 0.000000 0.000000 -23.311967 -9.798031 -8.195349 1.594331 7.964292 22.605711 -0.940779 -19.890799 -3.943567 0.028708 -1.092012 -3.002062 0.000000 0.000000 0.000000 16.990173 9.257664 -12.320446 -4.495488 -12.791980 38.594935 -0.882409 5.245716 -16.765165 -0.003953 -0.405341 1.113831 -2.044150 0.638648 9.469410 0.378771 0.654279 1.365101 1.460844 0.354759 -3.917706 -12.057222 -1.477635 -11.604510 4.253025 -0.338903 43.542295 4.166096 -1.575663 18.443069 0.000000 0.000000 0.000000 2.619624 8.093531 -15.993243 20.465461 -31.199103 5.770575 20.176203 10.685417 -27.960578 0.000000 0.000000 0.000000 -7.125000 0.000000 0.000000 -11.770096 59.081551 4.085229 0.000000 0.000000 0.000000 -0.171327 7.320734 19.307880 -24.336539 -35.518080 -7.901174 -15.958322 -3.001855 -7.418468 0.000000 0.000000 0.000000 7.125000 0.000000 0.000000 7.909027 22.291024 4.358392
-11.733298 17.766737 14.912296 2.628894 -0.682290 720.227167 0.000000 0.000000 0.000000 -21.749064 -12.430643 -8.652074 1.815705 8.471107 24.154438 -0.972607 -20.353099 -4.241857 0.069060 -1.689872 -4.649489 0.000000 0.000000 0.000000 19.077996 6.280203 -11.489996 -3.818205 -11.914181 35.429377 -1.068146 3.607913 -18.660320 -0.017541 -0.798012 2.193584 -1.556713 0.991021 9.455917 0.239594 1.167954 1.456871 0.977377 0.600682 -3.823007 -11.961027 -1.631363 -12.031870 4.410786 -0.504564 43.547317 4.212643 -1.580415 18.585307 0.000000 0.000000 0.000000 2.758403 7.493582 -15.621809 20.968626 -31.791678 6.033356 22.897866 11.782668 -25.417246 0.000000 0.000000 0.000000 -7.125000 0.000000 0.000000 -7.552006 57.101641 2.267323 0.000000 0.000000 0.000000 0.491119 6.400488 20.950750 -23.930153 -35.090324 -7.666354 -15.152201 -1.923842 -7.781780 0.000000 0.000000 0.000000 7.125000 0.000000 0.000000 8.482452 21.952051 4.747246
-11.945647 17.753014 14.688617 1.572887 1.223398 720.641573 0.000000 0.000000 0.000000 -19.585163 -16.378268 -10.367681 2.171521 9.214543 26.468696 -0.906621 -19.085814 -3.078146 0.017226 -0.717638 -1.972952 0.000000 0.000000 0.000000 21.465113 4.707039 -11.889263 -3.384171 -11.292357 33.272409 -0.976558 1.370826 -18.267734 -0.106814 -2.093072 5.763395 -0.379721 1.772031 10.792135 0.273175 2.321096 1.389370 0.159612 1.154567 -4.623916 -11.449689 -1.394740 -12.290590 3.841952 0.120211 43.360325 3.960072 -1.272309 18.456601 0.000000 0.000000 0.000000 2.693385 7.439530 -18.100567 22.481303 -33.516495 6.849776 20.921556 10.117588 -26.595459 0.000000 0.000000 0.000000 -7.125000 0.000000 0.000000 -10.227647 57.877578 3.248391 0.000000 0.000000 0.000000 0.494040 5.921212 21.755638 -23.883934 -35.041219 -7.639861 -14.817955 -1.102716 -6.714081 0.000000 0.000000 0.000000 7.125000 0.000000 0.000000 8.767893 23.056234 4.687045
-12.153929 17.777769 14.383263 1.545034 4.203454 721.688317 0.000000 0.000000 0.000000 -18.055106 -19.704104 -12.814230 2.309459 9.482883 27.317704 -1.002844 -19.528788 -2.269671 0.100960 -2.047308 -5.636559 0.000000 0.000000 0.000000 21.921546 3.887031 -14.566541 -3.408338 -11.328458 33.395800 -0.888745 0.874219 -17.543450 -0.181630 -2.744838 7.569186 0.247820 2.221011 11.685469 0.027232 2.978783 1.665248 -0.574914 1.464968 -4.790080 -11.094646 -0.985404 -13.231539 3.395134 1.123314 43.365525 3.888316 -0.835620 18.603711 0.000000 0.000000 0.000000 1.933895 7.169143 -18.949226 24.326151 -35.507309 7.895228 21.534815 11.374728 -26.862948 0.000000 0.000000 0.000000 -7.125000 0.000000 0.000000 -9.698692 58.286012 3.171446 0.000000 0.000000 0.000000 0.046692 4.318529 21.972463 -23.504466 -34.635854 -7.423023 -14.979868 -1.235089 -6.605346 0.000000 0.000000 0.000000 7.125000 0.000000 0.000000 8.654171 23.161843 4.603610
-12.308199 17.813788 14.107267 2.363306 7.109652 721.960371 0.000000 0.000000 0.000000 -18.269534 -21.101827 -12.834503 2.614420 10.042373 29.114639 -0.732512 -19.590038 -6.358769 0.659387 -5.156289 -14.363531 0.000000 0.000000 0.000000 21.373714 2.571127 -16.178616 -3.406930 -11.326315 33.388470 -0.781972 -0.171842 -16.776380 -0.195889 -2.849243 7.859484 0.166719 2.616771 12.193349 -0.385315 3.471927 2.073262 -1.048345 1.709248 -4.617158 -11.571178 -0.695895 -13.195424 3.857421 1.690751 43.774540 4.335460 -0.608711 18.774883 0.000000 0.000000 0.000000 1.563031 7.627750 -20.106630 25.108546 -36.314786 8.354085 20.712668 11.002112 -25.849300 0.000000 0.000000 0.000000 -7.125000 0.000000 0.000000 -10.078159 57.077383 3.002706 0.000000 0.000000 0.000000 -1.100276 3.516571 22.657183 -22.912241 -33.992737 -7.089154 -15.634986 -2.046088 -7.016428 0.000000 0.000000 0.000000 7.125000 0.000000 0.000000 8.158489 22.716921 4.418173
